<?xml version="1.0" encoding="UTF-8"?>
<svg width="42px" height="32px" viewBox="0 0 42 32" version="1.1" xmlns="http://www.w3.org/2000/svg" xmlns:xlink="http://www.w3.org/1999/xlink">
    <!-- Generator: Sketch 61.1 (89650) - https://sketch.com -->
    <title>logo-gmail</title>
    <desc>Created with Sketch.</desc>
    <defs>
        <linearGradient x1="0.00388991071%" y1="49.997619%" x2="100.032232%" y2="49.997619%" id="linearGradient-1">
            <stop stop-color="#000000" stop-opacity="0.1" offset="0%"></stop>
            <stop stop-color="#000000" stop-opacity="0.2" offset="100%"></stop>
        </linearGradient>
    </defs>
    <g id="páginas" stroke="none" stroke-width="1" fill="none" fill-rule="evenodd">
        <g id="Obrigado" transform="translate(-440.000000, -1495.000000)" fill-rule="nonzero">
            <g id="Group-13" transform="translate(272.000000, 1222.000000)">
                <g id="Group-6" transform="translate(137.000000, 254.000000)">
                    <g id="Group-4" transform="translate(31.000000, 19.000000)">
                        <g id="logo-gmail">
                            <path d="M39.375,32 L2.62499999,32 C1.2,32 0,30.8301886 0,29.3584906 L0,2.64150943 C0,1.20754717 1.1625,0 2.62499999,0 L39.375,0 C40.8,0 42,1.16981132 42,2.64150943 L42,29.3584906 C42,30.8301886 40.8375,32 39.375,32 L39.375,32 Z" id="Path" fill="#E3E3E3"></path>
                            <polygon id="Path" fill="#231F20" opacity="0.1" points="5.4064665 32 20.8891454 19.3498498 21 18.6741742 5.0369515 7 5 31.4369369"></polygon>
                            <path d="M2.5,32 C1.10714286,32 0,30.8351515 0,29.369697 L0,2.72848484 C0,1.2630303 1.10714286,1 2.5,1 C3.89285714,1 5,1.30060606 5,2.72848484 L5,32 L2.5,32 L2.5,32 Z" id="Path" fill="#D54B3D"></path>
                            <path d="M2.5,1.37575758 C4.28571429,1.37575758 4.64285715,1.93939394 4.64285715,2.72848484 L4.64285715,31.6242424 L2.5,31.6242424 C1.32142857,31.6242424 0.357142857,30.609697 0.357142857,29.369697 L0.357142857,2.72848484 C0.357142857,1.90181818 0.714285714,1.37575758 2.5,1.37575758 L2.5,1.37575758 Z M2.5,1 C1.10714286,1 0,1.30060606 0,2.72848484 L0,29.369697 C0,30.8351515 1.10714286,32 2.5,32 L5,32 L5,2.72848484 C5,1.2630303 3.89285714,1 2.5,1 L2.5,1 L2.5,1 Z" id="Shape" fill="#D72B27"></path>
                            <path d="M39.5,32 L37,32 L37,2.65333334 C37,1.18787879 38.1071427,1 39.5,1 C40.8928571,1 42,1.18787879 42,2.65333334 L42,29.4072727 C42,30.8351515 40.8928571,32 39.5,32 L39.5,32 Z" id="Path" fill="#D54B3D"></path>
                            <path d="M39.5,1.37530266 C41.1071428,1.37530266 41.6428571,1.71307506 41.6428571,2.65133173 L41.6428571,29.3728814 C41.6428571,30.6113803 40.6785714,31.6246975 39.5,31.6246975 L37.3571429,31.6246975 L37.3571429,2.65133173 C37.3571429,1.67554479 37.892857,1.37530266 39.5,1.37530266 L39.5,1.37530266 Z M39.5,1 C38.1071427,1 37,1.18765133 37,2.65133173 L37,32 L39.5,32 C40.8928571,32 42,30.8365619 42,29.3728814 L42,2.65133173 C42,1.18765133 40.8928571,1 39.5,1 L39.5,1 L39.5,1 Z" id="Shape" fill="#D72B27"></path>
                            <path d="M28.0520362,32 L0,3.73552082 L1.47551165,4.33559269 L21.0026602,18.393936 L42,3 L42,29.3993949 C42,30.8316122 40.8313862,32 39.3611955,32 L28.0520362,32 Z" id="Path" fill="url(#linearGradient-1)"></path>
                            <path d="M20.9323174,19 L1.12007444,4.81982274 C-0.0409454621,3.9704892 -0.378015758,2.34567723 0.483386107,1.20092332 C1.34478797,0.0561694251 3.03013945,-0.20232339 4.22861161,0.647010147 L20.9697696,12.6484623 L37.8232843,0.499299966 C38.9843043,-0.35003357 40.6322034,-0.0915407553 41.4936054,1.09014069 C42.3550072,2.23489458 42.0928415,3.85970656 40.8943693,4.7090401 L20.9323174,19 L20.9323174,19 Z" id="Path" fill="#D54B3D"></path>
                            <path d="M39.3822188,0.368217056 L39.3822188,0.368217056 C40.0947499,0.368217056 40.7697796,0.699612406 41.2197992,1.28875969 C41.9323304,2.28294575 41.7073205,3.64534885 40.7322778,4.38178296 L20.9689121,18.5213179 L1.3555528,4.52906979 C0.34300844,3.79263568 0.0804969394,2.39341087 0.793028155,1.43604652 C1.20554623,0.883720934 1.91807744,0.515503878 2.6681103,0.515503878 C3.15563167,0.515503878 3.64315302,0.662790701 4.01816945,0.957364345 L20.7439022,12.8875969 L20.9689121,13.0348838 L21.1939219,12.8875969 L38.0321596,0.773255818 C38.4446776,0.515503878 38.8946973,0.368217056 39.3822188,0.368217056 L39.3822188,0.368217056 Z M39.3822188,0 C38.8571957,0 38.294671,0.147286822 37.8446513,0.478682172 L20.9689121,12.5930233 L4.20567766,0.625968995 C3.75565794,0.294573645 3.19313329,0.147286822 2.63060865,0.147286822 C1.80557251,0.147286822 0.98053637,0.515503878 0.455513369,1.21511628 C-0.369522776,2.35658916 -0.0320079893,3.9767442 1.13054294,4.82364343 L20.9689121,19 L40.919786,4.71317831 C42.082337,3.86627908 42.3448486,2.28294575 41.5198123,1.10465117 C40.9947894,0.368217056 40.2072549,0 39.3822188,0 L39.3822188,0 L39.3822188,0 Z" id="Shape" fill="#D72B27"></path>
                        </g>
                    </g>
                </g>
            </g>
        </g>
    </g>
</svg>