<?xml version="1.0" encoding="UTF-8"?>
<svg width="42px" height="41px" viewBox="0 0 42 41" version="1.1" xmlns="http://www.w3.org/2000/svg" xmlns:xlink="http://www.w3.org/1999/xlink">
    <!-- Generator: Sketch 61.1 (89650) - https://sketch.com -->
    <title>logo-outlook</title>
    <desc>Created with Sketch.</desc>
    <g id="páginas" stroke="none" stroke-width="1" fill="none" fill-rule="evenodd">
        <g id="Obrigado" transform="translate(-630.000000, -1490.000000)" fill="#0072C6" fill-rule="nonzero">
            <g id="Group-13" transform="translate(272.000000, 1222.000000)">
                <g id="Group-8" transform="translate(326.000000, 254.000000)">
                    <g id="Group-7" transform="translate(32.000000, 14.000000)">
                        <g id="logo-outlook" transform="translate(0.000000, -0.000000)">
                            <path d="M26.4782609,8.2173913 L26.4782609,16.4353697 L29.3453643,18.243704 C29.4209802,18.2657952 29.5848145,18.267374 29.6604305,18.243704 L42,9.91053481 C42,8.92431407 41.0815813,8.2173913 40.5632995,8.2173913 L26.4782609,8.2173913 Z" id="path3"></path>
                            <path d="M26.4798359,19.019412 L29.0959303,20.8105503 C29.464483,21.0805554 29.9086365,20.8105503 29.9086365,20.8105503 C29.4660581,21.0805554 42,12.7826087 42,12.7826087 L42,27.8087053 C42,29.4444338 40.9494673,30.1304348 39.7682095,30.1304348 L26.4782609,30.1304348 L26.4782609,19.019412 L26.4798359,19.019412 Z" id="path5"></path>
                            <g id="g23">
                                <path d="M12.8206712,15.9046228 C11.9486005,15.9046228 11.2537174,16.3102558 10.740644,17.1199968 C10.2275707,17.9297379 9.97026359,19.0017679 9.97026359,20.336087 C9.97026359,21.6902302 10.2275707,22.7607353 10.740644,23.5476023 C11.2537174,24.3359942 11.9270299,24.7279028 12.7590408,24.7279028 C13.6172446,24.7279028 14.2982609,24.3451439 14.8005489,23.579626 C15.302837,22.8141081 15.5555217,21.7512276 15.5555217,20.3925096 C15.5555217,18.975844 15.3120815,17.8733152 14.8236603,17.0849233 C14.3352391,16.2980563 13.6680897,15.9046228 12.8206712,15.9046228 Z" id="path25"></path>
                                <path d="M0.679475543,4.62772059 L0.679475543,35.6982928 L24.561269,40.654335 L24.561269,0.0529124041 L0.679475543,4.62772059 Z M16.6602473,25.415649 C15.6510489,26.7301439 14.3352391,27.3889162 12.7112772,27.3889162 C11.1289158,27.3889162 9.84083967,26.751493 8.84396739,25.4781714 C7.84863587,24.2033248 7.34942935,22.5441944 7.34942935,20.4977302 C7.34942935,18.3368958 7.85479891,16.5893191 8.8670788,15.255 C9.8793587,13.9206809 11.2198207,13.252759 12.8884647,13.252759 C14.464663,13.252759 15.740413,13.8901822 16.7126332,15.1680786 C17.686394,16.4459751 18.173278,18.1295045 18.173278,20.2201918 C18.1748152,22.3688267 17.6694457,24.1011541 16.6602473,25.415649 Z" id="path27"></path>
                            </g>
                        </g>
                    </g>
                </g>
            </g>
        </g>
    </g>
</svg>